<svg width="409" height="57" viewBox="0 0 409 57" fill="none" xmlns="http://www.w3.org/2000/svg">
<path d="M24.6035 28.1313L41.8594 2.19189C42.1377 1.76514 42.416 1.45898 42.6943 1.27344C42.9912 1.08789 43.2788 0.995117 43.5571 0.995117C43.9097 0.995117 44.1973 1.14355 44.4199 1.44043C44.6611 1.71875 44.7817 2.07129 44.7817 2.49805V30.0518C44.7817 30.5898 44.7168 31.0537 44.5869 31.4434C44.457 31.8145 44.123 32 43.585 32C43.1211 32 42.8057 31.8145 42.6387 31.4434C42.4902 31.0537 42.416 30.5898 42.416 30.0518V5.33691L25.9673 29.6064C25.522 30.2373 25.0674 30.5527 24.6035 30.5527C24.1025 30.5527 23.6479 30.2373 23.2397 29.6064L6.79102 5.33691V30.0518C6.79102 30.5898 6.70752 31.0537 6.54053 31.4434C6.39209 31.8145 6.08594 32 5.62207 32C5.08398 32 4.75 31.8145 4.62012 31.4434C4.49023 31.0537 4.42529 30.5898 4.42529 30.0518V2.49805C4.42529 2.07129 4.53662 1.71875 4.75928 1.44043C5.00049 1.14355 5.29736 0.995117 5.6499 0.995117C5.90967 0.995117 6.17871 1.08789 6.45703 1.27344C6.75391 1.45898 7.05078 1.76514 7.34766 2.19189L24.6035 28.1313ZM73.9831 17.1099L86.7023 1.69092C87.0549 1.24561 87.4445 1.02295 87.8713 1.02295C88.4836 1.02295 88.7897 1.35693 88.7897 2.0249C88.7897 2.34033 88.632 2.68359 88.3166 3.05469L75.1799 18.8911V30.0796C75.1799 30.6177 75.1057 31.0723 74.9572 31.4434C74.8273 31.8145 74.5305 32 74.0666 32C73.7883 32 73.5656 31.9536 73.3986 31.8608C73.2502 31.7495 73.1296 31.6104 73.0368 31.4434C72.944 31.2578 72.8791 31.0537 72.842 30.8311C72.8234 30.6084 72.8142 30.3765 72.8142 30.1353V18.8354L59.6218 3.05469C59.4362 2.85059 59.3063 2.67432 59.2321 2.52588C59.1765 2.37744 59.1486 2.18262 59.1486 1.94141C59.1486 1.66309 59.2321 1.44043 59.3991 1.27344C59.5847 1.08789 59.8073 0.995117 60.0671 0.995117C60.4753 0.995117 60.8742 1.22705 61.2639 1.69092L73.9831 17.1099ZM130.877 12.0444C130.877 13.7329 130.664 15.1616 130.237 16.3306C129.829 17.481 129.254 18.4365 128.512 19.1973C127.769 19.958 126.87 20.5518 125.812 20.9785C124.773 21.3867 123.622 21.6929 122.361 21.897C121.099 22.1011 119.745 22.2217 118.297 22.2588C116.869 22.2959 115.393 22.3145 113.872 22.3145H105.578V29.8848C105.578 30.4229 105.504 30.9146 105.355 31.3599C105.225 31.7866 104.938 32 104.493 32C103.954 32 103.602 31.7959 103.435 31.3877C103.287 30.9609 103.212 30.46 103.212 29.8848V2.0249C103.212 1.74658 103.231 1.54248 103.268 1.4126C103.324 1.26416 103.407 1.16211 103.518 1.10645C103.63 1.05078 103.769 1.02295 103.936 1.02295C104.121 1.00439 104.353 0.995117 104.632 0.995117H113.872C115.56 0.995117 117.147 1.0415 118.631 1.13428C120.134 1.22705 121.517 1.42187 122.778 1.71875C124.04 1.99707 125.172 2.38672 126.174 2.8877C127.176 3.38867 128.02 4.05664 128.706 4.8916C129.412 5.70801 129.95 6.70068 130.321 7.86963C130.692 9.03857 130.877 10.4302 130.877 12.0444ZM128.512 12.0444C128.512 10.1147 128.215 8.54688 127.621 7.34082C127.046 6.13477 126.155 5.19775 124.949 4.52979C123.762 3.86182 122.249 3.4165 120.412 3.19385C118.576 2.95264 116.395 2.83203 113.872 2.83203H105.578V20.5889H113.872C116.395 20.5889 118.576 20.5146 120.412 20.3662C122.268 20.1992 123.789 19.8281 124.977 19.2529C126.183 18.6592 127.074 17.7964 127.649 16.6646C128.224 15.5327 128.512 13.9927 128.512 12.0444ZM145.968 32C145.69 32 145.467 31.9907 145.3 31.9722C145.151 31.9536 145.04 31.9165 144.966 31.8608C144.892 31.7866 144.845 31.6846 144.827 31.5547C144.827 31.4062 144.827 31.2114 144.827 30.9702V2.8042C144.827 2.32178 144.91 1.9043 145.077 1.55176C145.244 1.18066 145.597 0.995117 146.135 0.995117C146.58 0.995117 146.868 1.18994 146.998 1.57959C147.128 1.95068 147.192 2.35889 147.192 2.8042V30.1631H171.1C171.471 30.1631 171.75 30.2651 171.935 30.4692C172.139 30.6548 172.241 30.8589 172.241 31.0815C172.241 31.3228 172.139 31.5361 171.935 31.7217C171.75 31.9072 171.471 32 171.1 32H145.968ZM198.131 2.41455C198.428 1.87646 198.659 1.50537 198.826 1.30127C198.993 1.09717 199.244 0.995117 199.578 0.995117C199.838 0.995117 200.06 1.09717 200.246 1.30127C200.45 1.48682 200.71 1.85791 201.025 2.41455L216.388 30.1353C216.593 30.5063 216.695 30.8682 216.695 31.2207C216.695 31.5547 216.602 31.8145 216.416 32C216.231 32.1855 216.008 32.2783 215.748 32.2783C215.489 32.2783 215.229 32.1855 214.969 32C214.728 31.833 214.477 31.5176 214.218 31.0537L209.486 22.4814H189.67L184.883 31.165C184.679 31.5547 184.437 31.833 184.159 32C183.899 32.1855 183.639 32.2783 183.38 32.2783C183.064 32.2783 182.832 32.167 182.684 31.9443C182.535 31.7217 182.461 31.4248 182.461 31.0537C182.461 30.9053 182.489 30.7568 182.545 30.6084C182.619 30.46 182.702 30.293 182.795 30.1074L198.131 2.41455ZM208.679 20.8394L199.578 4.22363L190.477 20.8394H208.679ZM262.623 28.4375V3.11035C262.623 2.83203 262.632 2.57227 262.651 2.33105C262.669 2.07129 262.716 1.84863 262.79 1.66309C262.883 1.45898 263.003 1.30127 263.152 1.18994C263.319 1.06006 263.542 0.995117 263.82 0.995117C264.302 0.995117 264.618 1.2085 264.766 1.63525C264.915 2.04346 264.989 2.53516 264.989 3.11035V30.2188C264.989 31.4062 264.673 32 264.042 32C263.616 32 263.087 31.7124 262.456 31.1372L233.761 4.55762V30.0518C233.761 30.5898 233.678 31.0537 233.511 31.4434C233.362 31.8145 233.065 32 232.62 32C232.082 32 231.739 31.8145 231.59 31.4434C231.46 31.0537 231.396 30.5898 231.396 30.0518V2.8042C231.396 2.24756 231.498 1.8208 231.702 1.52393C231.906 1.22705 232.184 1.07861 232.537 1.07861C233 1.07861 233.539 1.35693 234.151 1.91357L262.623 28.4375ZM313.7 28.4375V3.11035C313.7 2.83203 313.71 2.57227 313.728 2.33105C313.747 2.07129 313.793 1.84863 313.867 1.66309C313.96 1.45898 314.081 1.30127 314.229 1.18994C314.396 1.06006 314.619 0.995117 314.897 0.995117C315.38 0.995117 315.695 1.2085 315.843 1.63525C315.992 2.04346 316.066 2.53516 316.066 3.11035V30.2188C316.066 31.4062 315.751 32 315.12 32C314.693 32 314.164 31.7124 313.533 31.1372L284.839 4.55762V30.0518C284.839 30.5898 284.755 31.0537 284.588 31.4434C284.44 31.8145 284.143 32 283.697 32C283.159 32 282.816 31.8145 282.668 31.4434C282.538 31.0537 282.473 30.5898 282.473 30.0518V2.8042C282.473 2.24756 282.575 1.8208 282.779 1.52393C282.983 1.22705 283.261 1.07861 283.614 1.07861C284.078 1.07861 284.616 1.35693 285.228 1.91357L313.7 28.4375ZM362.134 31.0259C362.134 31.3042 362.087 31.5083 361.995 31.6382C361.902 31.7681 361.772 31.8608 361.605 31.9165C361.456 31.9722 361.271 32 361.048 32C360.826 32 360.575 32 360.297 32H334.302C334.116 32 333.977 31.9907 333.884 31.9722C333.791 31.9536 333.717 31.9072 333.662 31.833C333.624 31.7588 333.597 31.666 333.578 31.5547C333.578 31.4248 333.578 31.2485 333.578 31.0259V2.30322C333.578 2.0249 333.578 1.80225 333.578 1.63525C333.597 1.46826 333.634 1.33838 333.689 1.24561C333.745 1.15283 333.838 1.08789 333.968 1.05078C334.116 1.01367 334.329 0.995117 334.608 0.995117H360.018C360.297 0.995117 360.557 0.995117 360.798 0.995117C361.039 0.995117 361.252 1.02295 361.438 1.07861C361.642 1.13428 361.8 1.22705 361.911 1.35693C362.022 1.48682 362.078 1.69092 362.078 1.96924C362.078 2.19189 362.022 2.36816 361.911 2.49805C361.8 2.60938 361.642 2.69287 361.438 2.74854C361.252 2.8042 361.039 2.83203 360.798 2.83203C360.557 2.83203 360.297 2.83203 360.018 2.83203H335.944V15.0225H359.879C360.288 15.0225 360.631 15.0781 360.909 15.1895C361.187 15.3008 361.327 15.542 361.327 15.9131C361.327 16.3213 361.206 16.5903 360.965 16.7202C360.742 16.8501 360.445 16.915 360.074 16.915H335.944V30.1631H360.074C360.352 30.1631 360.612 30.1631 360.853 30.1631C361.095 30.1631 361.308 30.1909 361.494 30.2466C361.698 30.3022 361.855 30.395 361.967 30.5249C362.078 30.6362 362.134 30.8032 362.134 31.0259ZM405.641 10.625C405.641 11.7568 405.474 12.7495 405.14 13.603C404.806 14.4565 404.351 15.1987 403.776 15.8296C403.219 16.4604 402.551 16.9893 401.772 17.416C401.011 17.8428 400.195 18.1953 399.323 18.4736C398.451 18.7334 397.542 18.9282 396.595 19.0581C395.668 19.188 394.758 19.2715 393.868 19.3086L404.11 30.0796C404.277 30.2466 404.388 30.4229 404.444 30.6084C404.518 30.7754 404.565 30.9331 404.583 31.0815C404.583 31.3413 404.49 31.564 404.305 31.7495C404.138 31.9165 403.915 32 403.637 32C403.433 32 403.21 31.9536 402.969 31.8608C402.746 31.7681 402.524 31.5918 402.301 31.332L391.14 19.4199H380.731V29.8848C380.731 30.1631 380.712 30.4321 380.675 30.6919C380.657 30.9331 380.61 31.1558 380.536 31.3599C380.462 31.5454 380.351 31.7031 380.202 31.833C380.072 31.9443 379.896 32 379.673 32C379.135 32 378.783 31.7959 378.616 31.3877C378.449 30.9609 378.365 30.46 378.365 29.8848V2.0249C378.365 1.74658 378.365 1.54248 378.365 1.4126C378.384 1.26416 378.421 1.16211 378.477 1.10645C378.532 1.05078 378.625 1.02295 378.755 1.02295C378.903 1.00439 379.117 0.995117 379.395 0.995117H387.466C389.192 0.995117 390.834 1.01367 392.393 1.05078C393.97 1.08789 395.426 1.2085 396.762 1.4126C398.117 1.59814 399.341 1.89502 400.436 2.30322C401.531 2.69287 402.459 3.24951 403.219 3.97314C403.999 4.67822 404.592 5.56885 405.001 6.64502C405.427 7.72119 405.641 9.04785 405.641 10.625ZM403.275 10.625C403.275 8.78809 402.932 7.3501 402.245 6.31104C401.577 5.25342 400.575 4.47412 399.239 3.97314C397.903 3.45361 396.252 3.13818 394.285 3.02686C392.318 2.89697 390.046 2.83203 387.466 2.83203H380.731V17.583H391.168C392.782 17.583 394.322 17.5088 395.788 17.3604C397.254 17.2119 398.534 16.8965 399.629 16.4141C400.742 15.9131 401.624 15.208 402.273 14.2988C402.941 13.3896 403.275 12.165 403.275 10.625Z" fill="#F5DF4D"/>
<path d="M215.619 45.7656H212.133C212.048 45.7656 211.964 45.7656 211.879 45.7656C211.794 45.7656 211.716 45.7559 211.645 45.7363C211.579 45.7168 211.524 45.6875 211.479 45.6484C211.439 45.6029 211.42 45.541 211.42 45.4629C211.42 45.3652 211.443 45.2936 211.488 45.248C211.534 45.2025 211.589 45.1699 211.654 45.1504C211.726 45.1309 211.804 45.1211 211.889 45.1211C211.973 45.1211 212.055 45.1211 212.133 45.1211H219.936C220.033 45.1211 220.124 45.1211 220.209 45.1211C220.294 45.1211 220.365 45.1309 220.424 45.1504C220.489 45.1699 220.541 45.2025 220.58 45.248C220.619 45.2936 220.639 45.3587 220.639 45.4434C220.639 45.5345 220.619 45.6029 220.58 45.6484C220.541 45.6875 220.489 45.7168 220.424 45.7363C220.365 45.7559 220.294 45.7656 220.209 45.7656C220.124 45.7656 220.033 45.7656 219.936 45.7656H216.449V55.3555H219.936C220.033 55.3555 220.124 55.3555 220.209 55.3555C220.294 55.3555 220.365 55.3652 220.424 55.3848C220.489 55.4043 220.541 55.4368 220.58 55.4824C220.619 55.528 220.639 55.5931 220.639 55.6777C220.639 55.7689 220.619 55.8372 220.58 55.8828C220.541 55.9219 220.489 55.9512 220.424 55.9707C220.365 55.9902 220.294 56 220.209 56C220.124 56 220.033 56 219.936 56H212.133C212.055 56 211.973 56 211.889 56C211.804 56 211.726 55.9902 211.654 55.9707C211.589 55.9512 211.534 55.9186 211.488 55.873C211.443 55.8275 211.42 55.7559 211.42 55.6582C211.42 55.5801 211.439 55.5215 211.479 55.4824C211.524 55.4368 211.579 55.4043 211.645 55.3848C211.716 55.3652 211.794 55.3555 211.879 55.3555C211.964 55.3555 212.048 55.3555 212.133 55.3555H215.619V45.7656ZM237.418 45.4824C237.418 45.6126 237.372 45.694 237.281 45.7266C237.19 45.7526 237.073 45.7656 236.929 45.7656H231.47V55.2773C231.47 55.375 231.467 55.4661 231.461 55.5508C231.454 55.6354 231.435 55.7135 231.402 55.7852C231.376 55.8503 231.337 55.9023 231.285 55.9414C231.233 55.9805 231.158 56 231.06 56C230.891 56 230.777 55.9284 230.718 55.7852C230.666 55.6354 230.64 55.4661 230.64 55.2773V45.7656H225.171C225.028 45.7656 224.905 45.7526 224.8 45.7266C224.703 45.694 224.654 45.6126 224.654 45.4824C224.654 45.3848 224.677 45.3132 224.722 45.2676C224.768 45.2155 224.823 45.1797 224.888 45.1602C224.96 45.1406 225.038 45.1309 225.123 45.1309C225.214 45.1243 225.298 45.1211 225.377 45.1211H236.714C236.812 45.1211 236.903 45.1243 236.988 45.1309C237.073 45.1309 237.144 45.1406 237.203 45.1602C237.268 45.1797 237.32 45.2155 237.359 45.2676C237.398 45.3132 237.418 45.3848 237.418 45.4824ZM248.943 55.5605C249.926 55.5605 250.863 55.4954 251.755 55.3652C252.647 55.235 253.545 55.0625 254.45 54.8477V50.7656H249.47C249.392 50.7656 249.31 50.7656 249.226 50.7656C249.148 50.7591 249.073 50.7461 249.001 50.7266C248.936 50.7005 248.881 50.6647 248.835 50.6191C248.796 50.5736 248.777 50.5085 248.777 50.4238C248.777 50.3392 248.796 50.2741 248.835 50.2285C248.881 50.1829 248.936 50.1504 249.001 50.1309C249.066 50.1048 249.138 50.0918 249.216 50.0918C249.301 50.0853 249.385 50.082 249.47 50.082H254.45C254.724 50.082 254.909 50.1341 255.007 50.2383C255.105 50.3424 255.154 50.5182 255.154 50.7656V54.8477C255.154 55.0495 255.079 55.2057 254.929 55.3164C254.779 55.4206 254.62 55.4889 254.45 55.5215C253.487 55.7103 252.553 55.8698 251.648 56C250.743 56.1367 249.841 56.2051 248.943 56.2051C247.732 56.2051 246.667 56.1009 245.749 55.8926C244.838 55.6842 244.076 55.3555 243.464 54.9062C242.852 54.4505 242.39 53.8678 242.077 53.1582C241.771 52.4421 241.618 51.5762 241.618 50.5605C241.618 49.5449 241.771 48.6823 242.077 47.9727C242.39 47.2565 242.852 46.6738 243.464 46.2246C244.076 45.7689 244.838 45.4368 245.749 45.2285C246.667 45.0202 247.732 44.916 248.943 44.916C249.789 44.916 250.609 44.9941 251.404 45.1504C252.198 45.3001 253.005 45.5443 253.825 45.8828C253.93 45.9284 254.004 45.987 254.05 46.0586C254.096 46.1237 254.118 46.1888 254.118 46.2539C254.118 46.332 254.089 46.4004 254.03 46.459C253.972 46.5176 253.897 46.5469 253.806 46.5469C253.78 46.5469 253.718 46.5306 253.62 46.498C252.872 46.1855 252.097 45.9512 251.296 45.7949C250.495 45.6387 249.711 45.5605 248.943 45.5605C247.784 45.5605 246.794 45.6582 245.974 45.8535C245.154 46.0423 244.48 46.3418 243.952 46.752C243.432 47.1556 243.051 47.6732 242.81 48.3047C242.569 48.9297 242.448 49.6816 242.448 50.5605C242.448 51.4395 242.569 52.1947 242.81 52.8262C243.051 53.4512 243.432 53.9688 243.952 54.3789C244.48 54.7826 245.154 55.082 245.974 55.2773C246.794 55.4661 247.784 55.5605 248.943 55.5605ZM264.296 45.7656H260.809C260.725 45.7656 260.64 45.7656 260.555 45.7656C260.471 45.7656 260.393 45.7559 260.321 45.7363C260.256 45.7168 260.201 45.6875 260.155 45.6484C260.116 45.6029 260.096 45.541 260.096 45.4629C260.096 45.3652 260.119 45.2936 260.165 45.248C260.21 45.2025 260.266 45.1699 260.331 45.1504C260.402 45.1309 260.481 45.1211 260.565 45.1211C260.65 45.1211 260.731 45.1211 260.809 45.1211H268.612C268.71 45.1211 268.801 45.1211 268.886 45.1211C268.97 45.1211 269.042 45.1309 269.1 45.1504C269.165 45.1699 269.218 45.2025 269.257 45.248C269.296 45.2936 269.315 45.3587 269.315 45.4434C269.315 45.5345 269.296 45.6029 269.257 45.6484C269.218 45.6875 269.165 45.7168 269.1 45.7363C269.042 45.7559 268.97 45.7656 268.886 45.7656C268.801 45.7656 268.71 45.7656 268.612 45.7656H265.126V55.3555H268.612C268.71 55.3555 268.801 55.3555 268.886 55.3555C268.97 55.3555 269.042 55.3652 269.1 55.3848C269.165 55.4043 269.218 55.4368 269.257 55.4824C269.296 55.528 269.315 55.5931 269.315 55.6777C269.315 55.7689 269.296 55.8372 269.257 55.8828C269.218 55.9219 269.165 55.9512 269.1 55.9707C269.042 55.9902 268.97 56 268.886 56C268.801 56 268.71 56 268.612 56H260.809C260.731 56 260.65 56 260.565 56C260.481 56 260.402 55.9902 260.331 55.9707C260.266 55.9512 260.21 55.9186 260.165 55.873C260.119 55.8275 260.096 55.7559 260.096 55.6582C260.096 55.5801 260.116 55.5215 260.155 55.4824C260.201 55.4368 260.256 55.4043 260.321 55.3848C260.393 55.3652 260.471 55.3555 260.555 55.3555C260.64 55.3555 260.725 55.3555 260.809 55.3555H264.296V45.7656ZM284.297 48.5C284.297 48.8971 284.239 49.2454 284.121 49.5449C284.004 49.8444 283.845 50.1048 283.643 50.3262C283.448 50.5475 283.213 50.7331 282.94 50.8828C282.673 51.0326 282.386 51.1562 282.08 51.2539C281.774 51.3451 281.455 51.4134 281.123 51.459C280.798 51.5046 280.479 51.5339 280.166 51.5469L283.76 55.3262C283.819 55.3848 283.858 55.4466 283.877 55.5117C283.903 55.5703 283.92 55.6257 283.926 55.6777C283.926 55.7689 283.894 55.847 283.829 55.9121C283.77 55.9707 283.692 56 283.594 56C283.523 56 283.444 55.9837 283.36 55.9512C283.282 55.9186 283.204 55.8568 283.125 55.7656L279.209 51.5859H275.557V55.2578C275.557 55.3555 275.551 55.4499 275.537 55.541C275.531 55.6257 275.515 55.7038 275.489 55.7754C275.463 55.8405 275.424 55.8958 275.371 55.9414C275.326 55.9805 275.264 56 275.186 56C274.997 56 274.873 55.9284 274.815 55.7852C274.756 55.6354 274.727 55.4596 274.727 55.2578V45.4824C274.727 45.3848 274.727 45.3132 274.727 45.2676C274.733 45.2155 274.746 45.1797 274.766 45.1602C274.786 45.1406 274.818 45.1309 274.864 45.1309C274.916 45.1243 274.991 45.1211 275.088 45.1211H277.92C278.526 45.1211 279.102 45.1276 279.649 45.1406C280.202 45.1536 280.713 45.196 281.182 45.2676C281.657 45.3327 282.087 45.4368 282.471 45.5801C282.855 45.7168 283.181 45.9121 283.448 46.166C283.721 46.4134 283.929 46.7259 284.073 47.1035C284.222 47.4811 284.297 47.9466 284.297 48.5ZM283.467 48.5C283.467 47.8555 283.347 47.3509 283.106 46.9863C282.871 46.6152 282.52 46.3418 282.051 46.166C281.582 45.9837 281.003 45.873 280.313 45.834C279.623 45.7884 278.825 45.7656 277.92 45.7656H275.557V50.9414H279.219C279.786 50.9414 280.326 50.9154 280.84 50.8633C281.355 50.8112 281.804 50.7005 282.188 50.5312C282.579 50.3555 282.888 50.1081 283.116 49.7891C283.35 49.4701 283.467 49.0404 283.467 48.5ZM290.783 56C290.686 56 290.607 55.9967 290.549 55.9902C290.497 55.9837 290.458 55.9707 290.432 55.9512C290.406 55.9251 290.389 55.8893 290.383 55.8438C290.383 55.7917 290.383 55.7233 290.383 55.6387V45.7559C290.383 45.5866 290.412 45.4401 290.471 45.3164C290.529 45.1862 290.653 45.1211 290.842 45.1211C290.998 45.1211 291.099 45.1895 291.145 45.3262C291.19 45.4564 291.213 45.5996 291.213 45.7559V55.3555H299.602C299.732 55.3555 299.829 55.3913 299.895 55.4629C299.966 55.528 300.002 55.5996 300.002 55.6777C300.002 55.7624 299.966 55.8372 299.895 55.9023C299.829 55.9674 299.732 56 299.602 56H290.783ZM317.347 52.9629C317.347 53.3796 317.272 53.7507 317.123 54.0762C316.973 54.3952 316.765 54.6751 316.498 54.916C316.231 55.1504 315.912 55.3522 315.541 55.5215C315.176 55.6842 314.779 55.8177 314.349 55.9219C313.92 56.0195 313.461 56.0879 312.972 56.127C312.49 56.1725 312.002 56.1953 311.507 56.1953C310.811 56.1953 310.117 56.1595 309.427 56.0879C308.737 56.0163 308.093 55.9284 307.494 55.8242C306.895 55.7135 306.364 55.5964 305.902 55.4727C305.446 55.349 305.101 55.2318 304.867 55.1211C304.776 55.0755 304.707 55.0202 304.662 54.9551C304.623 54.8835 304.603 54.8118 304.603 54.7402C304.603 54.6621 304.623 54.597 304.662 54.5449C304.707 54.4863 304.772 54.457 304.857 54.457C304.896 54.457 304.942 54.4668 304.994 54.4863C305.248 54.5905 305.612 54.7044 306.088 54.8281C306.563 54.9518 307.1 55.069 307.699 55.1797C308.304 55.2839 308.946 55.3717 309.623 55.4434C310.306 55.515 310.983 55.5508 311.654 55.5508C312.305 55.5508 312.923 55.5085 313.509 55.4238C314.095 55.3392 314.61 55.196 315.052 54.9941C315.502 54.7923 315.856 54.5254 316.117 54.1934C316.384 53.8613 316.517 53.4512 316.517 52.9629C316.517 52.5527 316.403 52.2174 316.175 51.957C315.954 51.6901 315.651 51.4785 315.267 51.3223C314.883 51.1595 314.434 51.0391 313.92 50.9609C313.405 50.8763 312.858 50.8145 312.279 50.7754C311.706 50.7298 311.114 50.6973 310.502 50.6777C309.89 50.6517 309.294 50.6126 308.714 50.5605C308.142 50.5085 307.598 50.4336 307.084 50.3359C306.569 50.2383 306.12 50.0951 305.736 49.9062C305.352 49.7174 305.046 49.4733 304.818 49.1738C304.597 48.8743 304.486 48.4967 304.486 48.041C304.486 47.6243 304.564 47.2565 304.72 46.9375C304.877 46.6185 305.091 46.3451 305.365 46.1172C305.638 45.8828 305.961 45.6908 306.332 45.541C306.709 45.3848 307.116 45.2611 307.552 45.1699C307.995 45.0788 308.457 45.0137 308.939 44.9746C309.427 44.9355 309.916 44.916 310.404 44.916C311.009 44.916 311.605 44.9453 312.191 45.0039C312.777 45.056 313.327 45.1309 313.841 45.2285C314.356 45.3197 314.818 45.4238 315.228 45.541C315.638 45.6517 315.967 45.7656 316.214 45.8828C316.267 45.9089 316.306 45.9479 316.332 46C316.358 46.0456 316.371 46.0944 316.371 46.1465C316.371 46.2376 316.338 46.3223 316.273 46.4004C316.214 46.4785 316.13 46.5176 316.019 46.5176C315.954 46.5176 315.899 46.5046 315.853 46.4785C315.508 46.3353 315.124 46.2083 314.701 46.0977C314.284 45.9805 313.841 45.8828 313.373 45.8047C312.904 45.7266 312.419 45.668 311.918 45.6289C311.423 45.5833 310.931 45.5605 310.443 45.5605C309.766 45.5605 309.118 45.5996 308.5 45.6777C307.881 45.7559 307.334 45.8893 306.859 46.0781C306.39 46.2604 306.016 46.5078 305.736 46.8203C305.456 47.1263 305.316 47.5137 305.316 47.9824C305.316 48.3405 305.427 48.6335 305.648 48.8613C305.876 49.0827 306.182 49.2617 306.566 49.3984C306.95 49.5352 307.399 49.6393 307.914 49.7109C308.428 49.776 308.972 49.8281 309.545 49.8672C310.124 49.9062 310.72 49.9421 311.332 49.9746C311.944 50.0007 312.536 50.0495 313.109 50.1211C313.688 50.1862 314.235 50.2806 314.75 50.4043C315.264 50.5215 315.713 50.6875 316.097 50.9023C316.481 51.1172 316.784 51.3939 317.005 51.7324C317.233 52.0645 317.347 52.4746 317.347 52.9629ZM323.052 50.5605C323.052 49.5449 323.205 48.6823 323.511 47.9727C323.823 47.2565 324.286 46.6738 324.898 46.2246C325.51 45.7689 326.271 45.4368 327.183 45.2285C328.101 45.0202 329.165 44.916 330.376 44.916C331.223 44.916 332.043 44.9941 332.837 45.1504C333.631 45.3001 334.439 45.5443 335.259 45.8828C335.363 45.9284 335.438 45.987 335.484 46.0586C335.529 46.1237 335.552 46.1888 335.552 46.2539C335.552 46.332 335.523 46.4004 335.464 46.459C335.405 46.5176 335.331 46.5469 335.239 46.5469C335.213 46.5469 335.152 46.5306 335.054 46.498C334.305 46.1855 333.53 45.9512 332.73 45.7949C331.929 45.6387 331.144 45.5605 330.376 45.5605C329.217 45.5605 328.228 45.6582 327.407 45.8535C326.587 46.0423 325.913 46.3418 325.386 46.752C324.865 47.1556 324.484 47.6732 324.243 48.3047C324.002 48.9297 323.882 49.6816 323.882 50.5605C323.882 51.4395 324.002 52.1947 324.243 52.8262C324.484 53.4512 324.865 53.9688 325.386 54.3789C325.913 54.7826 326.587 55.082 327.407 55.2773C328.228 55.4661 329.217 55.5605 330.376 55.5605C331.144 55.5605 331.929 55.4824 332.73 55.3262C333.53 55.1699 334.305 54.9355 335.054 54.623C335.106 54.597 335.165 54.584 335.23 54.584C335.327 54.584 335.405 54.6133 335.464 54.6719C335.529 54.7305 335.562 54.7988 335.562 54.877C335.562 54.9421 335.539 55.0072 335.493 55.0723C335.448 55.1374 335.37 55.1927 335.259 55.2383C334.432 55.5768 333.622 55.8242 332.827 55.9805C332.04 56.1302 331.223 56.2051 330.376 56.2051C329.165 56.2051 328.101 56.1009 327.183 55.8926C326.271 55.6842 325.51 55.3555 324.898 54.9062C324.286 54.4505 323.823 53.8678 323.511 53.1582C323.205 52.4421 323.052 51.5762 323.052 50.5605ZM341.354 45.8047C341.354 45.7201 341.358 45.6387 341.364 45.5605C341.377 45.4759 341.4 45.401 341.432 45.3359C341.471 45.2708 341.52 45.2188 341.579 45.1797C341.644 45.1406 341.725 45.1211 341.823 45.1211C341.895 45.1211 341.953 45.1439 341.999 45.1895C342.044 45.2285 342.08 45.2806 342.106 45.3457C342.139 45.4108 342.158 45.4857 342.165 45.5703C342.178 45.6484 342.184 45.7266 342.184 45.8047V50.082H350.827V45.8047C350.827 45.7201 350.83 45.6387 350.837 45.5605C350.843 45.4759 350.86 45.401 350.886 45.3359C350.918 45.2708 350.96 45.2188 351.012 45.1797C351.065 45.1406 351.139 45.1211 351.237 45.1211C351.335 45.1211 351.41 45.1406 351.462 45.1797C351.52 45.2188 351.563 45.2708 351.589 45.3359C351.621 45.401 351.641 45.4759 351.647 45.5605C351.654 45.6387 351.657 45.7201 351.657 45.8047V55.3164C351.657 55.401 351.654 55.4857 351.647 55.5703C351.641 55.6484 351.621 55.7201 351.589 55.7852C351.563 55.8503 351.524 55.9023 351.471 55.9414C351.419 55.9805 351.345 56 351.247 56C351.149 56 351.071 55.9805 351.012 55.9414C350.96 55.9023 350.918 55.8503 350.886 55.7852C350.86 55.7201 350.843 55.6484 350.837 55.5703C350.83 55.4857 350.827 55.401 350.827 55.3164V50.6875H342.184V55.3164C342.184 55.3945 342.178 55.4759 342.165 55.5605C342.152 55.6387 342.129 55.7103 342.096 55.7754C342.07 55.8405 342.031 55.8958 341.979 55.9414C341.934 55.9805 341.875 56 341.804 56C341.706 56 341.624 55.9805 341.559 55.9414C341.501 55.9023 341.455 55.8503 341.423 55.7852C341.397 55.7201 341.377 55.6484 341.364 55.5703C341.358 55.4857 341.354 55.401 341.354 55.3164V45.8047ZM372.166 50.5605C372.166 51.5111 372.023 52.3411 371.737 53.0508C371.457 53.7539 371.021 54.3398 370.428 54.8086C369.842 55.2773 369.097 55.6289 368.192 55.8633C367.293 56.0911 366.226 56.2051 364.989 56.2051C363.752 56.2051 362.681 56.0911 361.776 55.8633C360.877 55.6289 360.135 55.2773 359.549 54.8086C358.963 54.3398 358.527 53.7539 358.241 53.0508C357.961 52.3411 357.821 51.5111 357.821 50.5605C357.821 49.61 357.961 48.7832 358.241 48.0801C358.527 47.3704 358.963 46.7812 359.549 46.3125C360.135 45.8438 360.877 45.4954 361.776 45.2676C362.681 45.0332 363.752 44.916 364.989 44.916C366.226 44.916 367.293 45.0332 368.192 45.2676C369.097 45.4954 369.842 45.8438 370.428 46.3125C371.021 46.7812 371.457 47.3704 371.737 48.0801C372.023 48.7832 372.166 49.61 372.166 50.5605ZM358.651 50.5605C358.651 51.472 358.781 52.2435 359.041 52.875C359.302 53.5065 359.692 54.0241 360.213 54.4277C360.741 54.8249 361.401 55.1146 362.196 55.2969C362.99 55.4727 363.921 55.5605 364.989 55.5605C366.056 55.5605 366.987 55.4727 367.782 55.2969C368.576 55.1146 369.237 54.8249 369.764 54.4277C370.291 54.0241 370.685 53.5065 370.946 52.875C371.206 52.2435 371.336 51.472 371.336 50.5605C371.336 49.6556 371.206 48.8874 370.946 48.2559C370.685 47.6178 370.291 47.1003 369.764 46.7031C369.237 46.2995 368.576 46.0098 367.782 45.834C366.987 45.6517 366.056 45.5605 364.989 45.5605C363.921 45.5605 362.99 45.6517 362.196 45.834C361.401 46.0098 360.741 46.2995 360.213 46.7031C359.692 47.1003 359.302 47.6178 359.041 48.2559C358.781 48.8874 358.651 49.6556 358.651 50.5605ZM392.324 50.5605C392.324 51.5111 392.181 52.3411 391.895 53.0508C391.615 53.7539 391.178 54.3398 390.586 54.8086C390 55.2773 389.255 55.6289 388.35 55.8633C387.451 56.0911 386.383 56.2051 385.146 56.2051C383.91 56.2051 382.839 56.0911 381.934 55.8633C381.035 55.6289 380.293 55.2773 379.707 54.8086C379.121 54.3398 378.685 53.7539 378.398 53.0508C378.118 52.3411 377.979 51.5111 377.979 50.5605C377.979 49.61 378.118 48.7832 378.398 48.0801C378.685 47.3704 379.121 46.7812 379.707 46.3125C380.293 45.8438 381.035 45.4954 381.934 45.2676C382.839 45.0332 383.91 44.916 385.146 44.916C386.383 44.916 387.451 45.0332 388.35 45.2676C389.255 45.4954 390 45.8438 390.586 46.3125C391.178 46.7812 391.615 47.3704 391.895 48.0801C392.181 48.7832 392.324 49.61 392.324 50.5605ZM378.809 50.5605C378.809 51.472 378.939 52.2435 379.199 52.875C379.46 53.5065 379.85 54.0241 380.371 54.4277C380.898 54.8249 381.559 55.1146 382.354 55.2969C383.148 55.4727 384.079 55.5605 385.146 55.5605C386.214 55.5605 387.145 55.4727 387.939 55.2969C388.734 55.1146 389.395 54.8249 389.922 54.4277C390.449 54.0241 390.843 53.5065 391.104 52.875C391.364 52.2435 391.494 51.472 391.494 50.5605C391.494 49.6556 391.364 48.8874 391.104 48.2559C390.843 47.6178 390.449 47.1003 389.922 46.7031C389.395 46.2995 388.734 46.0098 387.939 45.834C387.145 45.6517 386.214 45.5605 385.146 45.5605C384.079 45.5605 383.148 45.6517 382.354 45.834C381.559 46.0098 380.898 46.2995 380.371 46.7031C379.85 47.1003 379.46 47.6178 379.199 48.2559C378.939 48.8874 378.809 49.6556 378.809 50.5605ZM398.898 56C398.8 56 398.722 55.9967 398.664 55.9902C398.612 55.9837 398.573 55.9707 398.546 55.9512C398.52 55.9251 398.504 55.8893 398.498 55.8438C398.498 55.7917 398.498 55.7233 398.498 55.6387V45.7559C398.498 45.5866 398.527 45.4401 398.586 45.3164C398.644 45.1862 398.768 45.1211 398.957 45.1211C399.113 45.1211 399.214 45.1895 399.259 45.3262C399.305 45.4564 399.328 45.5996 399.328 45.7559V55.3555H407.716C407.847 55.3555 407.944 55.3913 408.009 55.4629C408.081 55.528 408.117 55.5996 408.117 55.6777C408.117 55.7624 408.081 55.8372 408.009 55.9023C407.944 55.9674 407.847 56 407.716 56H398.898Z" fill="#F5DF4D"/>
</svg>
